<mxfile host="app.diagrams.net" modified="2022-11-07T09:40:27.313Z" agent="5.0 (Macintosh; Intel Mac OS X 10_15_7) AppleWebKit/537.36 (KHTML, like Gecko) Chrome/106.0.0.0 Safari/537.36" etag="krAhNfU-9QoHWZeRRnZW" version="20.5.3" type="github">
  <diagram id="yAJ4utExJjLhd0W0GW8z" name="Page-1">
    <mxGraphModel dx="1407" dy="693" grid="1" gridSize="10" guides="1" tooltips="1" connect="1" arrows="1" fold="1" page="1" pageScale="1" pageWidth="850" pageHeight="1100" math="0" shadow="0">
      <root>
        <mxCell id="0" />
        <mxCell id="1" parent="0" />
        <mxCell id="I7Mnrstq1xNTC_rOepOP-4" style="edgeStyle=orthogonalEdgeStyle;rounded=0;orthogonalLoop=1;jettySize=auto;html=1;exitX=0.5;exitY=1;exitDx=0;exitDy=0;" edge="1" parent="1" source="I7Mnrstq1xNTC_rOepOP-1">
          <mxGeometry relative="1" as="geometry">
            <mxPoint x="280" y="150" as="targetPoint" />
          </mxGeometry>
        </mxCell>
        <mxCell id="I7Mnrstq1xNTC_rOepOP-1" value="Get something from Autotask API" style="rounded=1;whiteSpace=wrap;html=1;" vertex="1" parent="1">
          <mxGeometry x="130" y="40" width="300" height="60" as="geometry" />
        </mxCell>
        <mxCell id="I7Mnrstq1xNTC_rOepOP-10" style="edgeStyle=orthogonalEdgeStyle;rounded=0;orthogonalLoop=1;jettySize=auto;html=1;exitX=0.5;exitY=1;exitDx=0;exitDy=0;" edge="1" parent="1" source="I7Mnrstq1xNTC_rOepOP-7" target="I7Mnrstq1xNTC_rOepOP-9">
          <mxGeometry relative="1" as="geometry" />
        </mxCell>
        <mxCell id="I7Mnrstq1xNTC_rOepOP-7" value="Check requested information and execute method" style="rounded=1;whiteSpace=wrap;html=1;" vertex="1" parent="1">
          <mxGeometry x="35" y="150" width="490" height="60" as="geometry" />
        </mxCell>
        <mxCell id="I7Mnrstq1xNTC_rOepOP-13" style="edgeStyle=orthogonalEdgeStyle;rounded=0;orthogonalLoop=1;jettySize=auto;html=1;exitX=0.5;exitY=1;exitDx=0;exitDy=0;" edge="1" parent="1" source="I7Mnrstq1xNTC_rOepOP-9" target="I7Mnrstq1xNTC_rOepOP-12">
          <mxGeometry relative="1" as="geometry" />
        </mxCell>
        <mxCell id="I7Mnrstq1xNTC_rOepOP-9" value="Raise event for logs" style="rounded=1;whiteSpace=wrap;html=1;" vertex="1" parent="1">
          <mxGeometry x="35" y="250" width="490" height="60" as="geometry" />
        </mxCell>
        <mxCell id="I7Mnrstq1xNTC_rOepOP-12" value="Return response or error" style="rounded=1;whiteSpace=wrap;html=1;" vertex="1" parent="1">
          <mxGeometry x="35" y="350" width="490" height="60" as="geometry" />
        </mxCell>
      </root>
    </mxGraphModel>
  </diagram>
</mxfile>
